<svg xmlns="http://www.w3.org/2000/svg" width="24" height="24" fill="none" viewBox="0 0 24 24">
  <path stroke="#64748B" stroke-linecap="round" stroke-linejoin="round" stroke-width="1.5" d="m21 18-1 1.094c-.53.58-1.25.906-2 .906a2.71 2.71 0 0 1-2-.906 2.716 2.716 0 0 0-2-.904c-.75 0-1.469.325-2 .904M3 20h1.675c.489 0 .733 0 .963-.055.205-.05.4-.13.579-.24.201-.123.374-.296.72-.642L19.5 6.5a2.121 2.121 0 1 0-3-3L3.937 16.063c-.346.346-.519.519-.642.72a2 2 0 0 0-.24.578c-.055.23-.055.475-.055.965V20Z"/>
</svg>
