<svg xmlns="http://www.w3.org/2000/svg" width="24" height="24" fill="none" viewBox="0 0 24 24">
  <path stroke="#64748B" stroke-linecap="round" stroke-linejoin="round" stroke-width="1.5" d="M20.5 7.278 12 12m0 0L3.5 7.278M12 12v9.5m2-.611-1.223.68c-.284.157-.425.236-.575.267-.133.027-.27.027-.403 0-.15-.031-.292-.11-.576-.268l-7.4-4.11c-.3-.167-.45-.25-.558-.369a1 1 0 0 1-.215-.364C3 16.573 3 16.401 3 16.058V7.941c0-.342 0-.514.05-.666a1 1 0 0 1 .215-.364c.109-.119.258-.202.558-.368l7.4-4.111c.284-.158.425-.237.576-.268a1 1 0 0 1 .402 0c.15.031.292.11.576.268l7.4 4.11c.3.167.45.25.558.369a1 1 0 0 1 .215.364c.05.152.05.324.05.666V12.5m-13.5-8 9 5M19 21v-6m-3 3h6"/>
</svg>
