<svg xmlns="http://www.w3.org/2000/svg" width="24" height="24" fill="none" viewBox="0 0 24 24">
  <path stroke="#64748B" stroke-linecap="round" stroke-linejoin="round" stroke-width="1.5" d="m2.5 21.5 5.55-2.134c.354-.137.532-.205.698-.294.147-.08.288-.17.42-.273.149-.116.283-.25.552-.52L21 7a2.828 2.828 0 1 0-4-4L5.72 14.28c-.269.269-.403.403-.519.552a3.008 3.008 0 0 0-.273.42c-.089.166-.157.344-.294.699L2.5 21.5Zm0 0 2.058-5.351c.147-.383.221-.574.347-.662a.5.5 0 0 1 .38-.08c.15.028.295.173.585.463l2.26 2.26c.29.29.435.435.464.586a.5.5 0 0 1-.08.379c-.089.126-.28.2-.663.347L2.5 21.5Z"/>
</svg>
