<svg width="24" height="24" viewBox="0 0 24 24" fill="none" xmlns="http://www.w3.org/2000/svg">
<g id="Robot" clip-path="url(#clip0_3217_86313)">
<path id="Vector" fill-rule="evenodd" clip-rule="evenodd" d="M7.35747 7.57319C6.34686 7.57319 5.5276 8.39245 5.5276 9.40306V13.2515C5.5276 14.2621 6.34686 15.0814 7.35747 15.0814H15.3943C16.4049 15.0814 17.2242 14.2621 17.2242 13.2515V9.40306C17.2242 8.39245 16.4049 7.57319 15.3943 7.57319H7.35747ZM4.01984 9.40306C4.01984 7.55974 5.51415 6.06543 7.35747 6.06543H15.3943C17.2376 6.06543 18.7319 7.55974 18.7319 9.40306V13.2515C18.7319 15.0948 17.2376 16.5891 15.3943 16.5891H7.35747C5.51415 16.5891 4.01984 15.0948 4.01984 13.2515V9.40306Z" fill="#64748B"/>
<path id="Vector_2" fill-rule="evenodd" clip-rule="evenodd" d="M11.3692 15.0811C11.7855 15.0811 12.1231 15.4186 12.1231 15.8349V17.9699C12.1231 18.3863 11.7855 18.7238 11.3692 18.7238C10.9528 18.7238 10.6153 18.3863 10.6153 17.9699V15.8349C10.6153 15.4186 10.9528 15.0811 11.3692 15.0811Z" fill="#64748B"/>
<path id="Vector_3" fill-rule="evenodd" clip-rule="evenodd" d="M7.18075 18.833C5.70689 18.833 4.50776 20.0321 4.50776 21.5059V23.1922C4.50776 23.6085 4.17023 23.9461 3.75388 23.9461C3.33752 23.9461 3 23.6085 3 23.1922V21.5059C3 19.1994 4.87418 17.3252 7.18075 17.3252H15.5575C17.8641 17.3252 19.7383 19.1994 19.7383 21.5059V23.2466C19.7383 23.6629 19.4008 24.0005 18.9844 24.0005C18.5681 24.0005 18.2305 23.6629 18.2305 23.2466V21.5059C18.2305 20.0321 17.0314 18.833 15.5575 18.833H7.18075Z" fill="#64748B"/>
<path id="Vector_4" fill-rule="evenodd" clip-rule="evenodd" d="M8.86696 10.809C8.70494 10.809 8.57374 10.9411 8.57374 11.1022C8.57374 11.5186 8.23622 11.8561 7.81986 11.8561C7.40351 11.8561 7.06599 11.5186 7.06599 11.1022C7.06599 10.1211 7.85951 9.30127 8.86696 9.30127C9.86806 9.30127 10.6679 10.1011 10.6679 11.1022C10.6679 11.5186 10.3304 11.8561 9.91406 11.8561C9.49771 11.8561 9.16019 11.5186 9.16019 11.1022C9.16019 10.9339 9.03535 10.809 8.86696 10.809Z" fill="#64748B"/>
<path id="Vector_5" fill-rule="evenodd" clip-rule="evenodd" d="M14.252 10.809C14.09 10.809 13.9588 10.9411 13.9588 11.1022C13.9588 11.5186 13.6213 11.8561 13.2049 11.8561C12.7886 11.8561 12.4511 11.5186 12.4511 11.1022C12.4511 10.1211 13.2446 9.30127 14.252 9.30127C15.2531 9.30127 16.053 10.1011 16.053 11.1022C16.053 11.5186 15.7155 11.8561 15.2991 11.8561C14.8828 11.8561 14.5453 11.5186 14.5453 11.1022C14.5453 10.9339 14.4204 10.809 14.252 10.809Z" fill="#64748B"/>
<path id="Vector_6" fill-rule="evenodd" clip-rule="evenodd" d="M11.3692 3.5083C11.7855 3.5083 12.1231 3.84582 12.1231 4.26218V6.81873C12.1231 7.23509 11.7855 7.57261 11.3692 7.57261C10.9528 7.57261 10.6153 7.23509 10.6153 6.81873V4.26218C10.6153 3.84582 10.9528 3.5083 11.3692 3.5083Z" fill="#64748B"/>
<path id="Vector_7" fill-rule="evenodd" clip-rule="evenodd" d="M11.3692 1.50776C10.82 1.50776 10.3688 1.95896 10.3688 2.50811C10.3688 3.05726 10.82 3.50846 11.3692 3.50846C11.9183 3.50846 12.3695 3.05726 12.3695 2.50811C12.3695 1.95896 11.9183 1.50776 11.3692 1.50776ZM8.86105 2.50811C8.86105 1.12625 9.9873 0 11.3692 0C12.751 0 13.8773 1.12625 13.8773 2.50811C13.8773 3.88997 12.751 5.01622 11.3692 5.01622C9.9873 5.01622 8.86105 3.88997 8.86105 2.50811Z" fill="#64748B"/>
<path id="Vector_8" fill-rule="evenodd" clip-rule="evenodd" d="M8.58149 21.2807C8.31791 21.2807 8.11148 21.4871 8.11148 21.7507V23.1922C8.11148 23.6085 7.77396 23.946 7.3576 23.946C6.94125 23.946 6.60373 23.6085 6.60373 23.1922V21.7507C6.60373 20.6544 7.4852 19.7729 8.58149 19.7729H14.1026C15.1988 19.7729 16.0803 20.6544 16.0803 21.7507V23.2194C16.0803 23.6357 15.7428 23.9732 15.3264 23.9732C14.9101 23.9732 14.5726 23.6357 14.5726 23.2194V21.7507C14.5726 21.4871 14.3661 21.2807 14.1026 21.2807H8.58149Z" fill="#64748B"/>
</g>
<defs>
<clipPath id="clip0_3217_86313">
<rect width="24" height="24" fill="white"/>
</clipPath>
</defs>
</svg>
