<svg width="16" height="16" viewBox="0 0 16 16" fill="none" xmlns="http://www.w3.org/2000/svg">
<g id="Tag">
<path id="Vector" d="M2 7.90933V3.12533C1.99991 2.97753 2.02896 2.83115 2.08548 2.69458C2.142 2.55801 2.22489 2.43392 2.32941 2.32941C2.43392 2.22489 2.55801 2.142 2.69458 2.08548C2.83115 2.02896 2.97753 1.99991 3.12533 2H7.90933C8.05703 1.99998 8.20329 2.02905 8.33976 2.08556C8.47622 2.14207 8.60022 2.2249 8.70467 2.32933L13.6707 7.29533C13.8815 7.50634 13.9999 7.7924 13.9999 8.09067C13.9999 8.38893 13.8815 8.67499 13.6707 8.886L8.88667 13.6707C8.78223 13.7751 8.65824 13.858 8.52177 13.9145C8.38531 13.9711 8.23904 14.0001 8.09133 14.0001C7.94362 14.0001 7.79736 13.9711 7.66089 13.9145C7.52443 13.858 7.40044 13.7751 7.296 13.6707L2.32933 8.70467C2.11849 8.49368 2.00003 8.20761 2 7.90933ZM4.62533 3.5C4.40274 3.49987 4.1851 3.56576 3.99995 3.68933C3.8148 3.8129 3.67046 3.98861 3.58519 4.19423C3.49991 4.39984 3.47753 4.62613 3.52088 4.84447C3.56422 5.0628 3.67135 5.26338 3.8287 5.42083C3.98605 5.57828 4.18657 5.68552 4.40488 5.729C4.62319 5.77247 4.84949 5.75022 5.05516 5.66507C5.26083 5.57992 5.43662 5.43568 5.5603 5.2506C5.68398 5.06553 5.75 4.84793 5.75 4.62533C5.75009 4.47758 5.72106 4.33127 5.66458 4.19474C5.6081 4.05821 5.52527 3.93415 5.42083 3.82964C5.31638 3.72514 5.19237 3.64224 5.05588 3.58567C4.91938 3.52911 4.77308 3.5 4.62533 3.5Z" fill="#64748B"/>
</g>
</svg>
