<svg xmlns="http://www.w3.org/2000/svg" width="24" height="24" fill="none" viewBox="0 0 24 24">
  <path stroke="#64748B" stroke-linecap="round" stroke-linejoin="round" stroke-width="1.5" d="M19.748 5A11.946 11.946 0 0 1 22 12c0 2.612-.835 5.03-2.252 7M15.745 8A6.968 6.968 0 0 1 17 12a6.968 6.968 0 0 1-1.255 4M9.635 4.366 6.468 7.53c-.173.173-.26.26-.36.322a1 1 0 0 1-.29.12C5.704 8 5.582 8 5.337 8H3.6c-.56 0-.84 0-1.054.109a1 1 0 0 0-.437.437C2 8.76 2 9.04 2 9.6v4.8c0 .56 0 .84.109 1.054a1 1 0 0 0 .437.437C2.76 16 3.04 16 3.6 16h1.737c.245 0 .367 0 .482.028a1 1 0 0 1 .29.12c.1.061.187.148.36.32l3.165 3.166c.429.429.643.643.827.657a.5.5 0 0 0 .42-.173c.119-.14.119-.444.119-1.05V4.932c0-.605 0-.908-.12-1.049a.5.5 0 0 0-.42-.173c-.183.014-.397.228-.826.657Z"/>
</svg>
