<svg xmlns="http://www.w3.org/2000/svg" viewBox="0 0 111.49 95"><defs><style>.a{fill:#fff;}</style></defs><path class="a" d="M55.76,38a9.55,9.55,0,1,1-9.33,9.55A9.45,9.45,0,0,1,55.76,38Z"/><path class="a" d="M48.11,91.65C-5.17,54.54,18,30.44,54.13,29,70.48,28.33,71,1.26,53.48,3.48,36.23,5.69-1,20.25,5.83,46.72,11.05,66.85,35.74,87.25,48.11,91.65Z"/><path class="a" d="M63.42,3.35c53.27,37.11,30.11,61.21-6,62.67-16.35.65-16.85,27.73.64,25.5,17.25-2.21,54.51-16.77,47.65-43.24C100.48,28.15,75.79,7.75,63.42,3.35Z"/></svg>