<?xml version="1.0" encoding="UTF-8" standalone="no"?>
<!-- Created with Inkscape (http://www.inkscape.org/) -->

<svg
   xmlns:dc="http://purl.org/dc/elements/1.1/"
   xmlns:cc="http://creativecommons.org/ns#"
   xmlns:rdf="http://www.w3.org/1999/02/22-rdf-syntax-ns#"
   xmlns:svg="http://www.w3.org/2000/svg"
   xmlns="http://www.w3.org/2000/svg"
   xmlns:sodipodi="http://sodipodi.sourceforge.net/DTD/sodipodi-0.dtd"
   xmlns:inkscape="http://www.inkscape.org/namespaces/inkscape"
   width="43.430275mm"
   height="37.720379mm"
   viewBox="0 0 43.430275 37.720379"
   version="1.1"
   id="svg8"
   sodipodi:docname="eye.svg"
   inkscape:export-filename="C:\Users\ryanw\Desktop\velaro_logos\velaro_logo_50.png"
   inkscape:export-xdpi="33.6688"
   inkscape:export-ydpi="33.6688"
   inkscape:version="0.92.1 r15371">
  <defs
     id="defs2" />
  <sodipodi:namedview
     id="base"
     pagecolor="#ffffff"
     bordercolor="#666666"
     borderopacity="1.0"
     inkscape:pageopacity="0.0"
     inkscape:pageshadow="2"
     inkscape:zoom="1.4"
     inkscape:cx="198.35047"
     inkscape:cy="79.726698"
     inkscape:document-units="mm"
     inkscape:current-layer="layer1"
     showgrid="false"
     inkscape:window-width="1920"
     inkscape:window-height="1027"
     inkscape:window-x="-8"
     inkscape:window-y="-8"
     inkscape:window-maximized="1" />
  <metadata
     id="metadata5">
    <rdf:RDF>
      <cc:Work
         rdf:about="">
        <dc:format>image/svg+xml</dc:format>
        <dc:type
           rdf:resource="http://purl.org/dc/dcmitype/StillImage" />
        <dc:title></dc:title>
      </cc:Work>
    </rdf:RDF>
  </metadata>
  <g
     inkscape:label="Layer 1"
     inkscape:groupmode="layer"
     id="layer1"
     transform="translate(-29.192985,-93.487316)">
    <path
       style="fill:#2860a9;fill-opacity:1;stroke-width:0.08466667"
       d="m 49.921107,131.11606 c -1.591173,-0.36307 -2.730233,-1.41914 -3.291562,-3.05175 -0.209708,-0.60993 -0.233226,-0.79529 -0.236326,-1.86267 -0.0029,-1.01301 0.02538,-1.27711 0.194816,-1.81668 0.444521,-1.41559 1.176035,-2.47488 2.185265,-3.16446 0.939872,-0.64218 1.569831,-0.81631 3.454445,-0.95486 4.965113,-0.36502 8.585465,-1.39552 11.349365,-3.23052 3.943459,-2.61811 5.054573,-6.28562 3.210282,-10.59634 -1.657571,-3.87429 -5.658152,-8.088054 -11.968795,-12.606564 -0.207082,-0.14827 -0.344841,-0.26959 -0.306129,-0.26959 0.03871,0 0.425527,0.16824 0.859592,0.37386 3.997894,1.89382 9.017066,6.084204 12.443252,10.388574 2.773285,3.48412 4.510533,7.1914 4.769958,10.17907 0.437186,5.03488 -2.907543,9.58803 -9.589245,13.05374 -4.563695,2.36713 -10.825987,4.07134 -13.074918,3.55819 z"
       id="path7671"
       inkscape:connector-curvature="0"
       inkscape:export-xdpi="67.264885"
       inkscape:export-ydpi="67.264885" />
    <path
       style="fill:#6bb250;fill-opacity:1;stroke-width:0.08466667"
       d="m 46.457911,130.73419 c -1.415733,-0.66559 -3.407327,-1.9287 -5.148135,-3.26507 -6.001049,-4.60684 -10.531035,-10.58504 -11.770766,-15.53382 -0.808144,-3.22597 -0.211707,-6.04258 1.905019,-8.99626 0.607243,-0.84734 2.479605,-2.65308 3.620952,-3.492104 2.530724,-1.86037 5.701626,-3.44282 9.228943,-4.60572 3.388529,-1.11715 6.379391,-1.59452 7.751316,-1.23718 1.210873,0.3154 2.20663,1.1041 2.783786,2.20494 0.462886,0.88288 0.609677,1.52505 0.609024,2.66432 -6.78e-4,1.16746 -0.157129,1.881624 -0.621386,2.836334 -0.447252,0.91975 -1.019782,1.5994 -1.78673,2.12105 -1.050432,0.71447 -1.469293,0.8138 -4.438824,1.05266 -5.155851,0.41472 -9.532344,2.04028 -12.015482,4.46292 -1.538314,1.50083 -2.295406,3.11615 -2.393023,5.10571 -0.231823,4.72483 3.936743,10.33206 12.108696,16.28763 0.551204,0.40171 0.970304,0.72822 0.931333,0.72559 -0.03897,-0.003 -0.383097,-0.15159 -0.764723,-0.331 z"
       id="path7669"
       inkscape:connector-curvature="0"
       inkscape:export-xdpi="67.264885"
       inkscape:export-ydpi="67.264885" />
    <path
       style="fill:#000000;fill-opacity:1;stroke-width:0.08466667"
       d="m 49.60711,117.28034 c -1.308596,-0.37669 -2.551959,-1.39545 -3.118247,-2.55496 -0.409947,-0.8394 -0.565014,-1.48976 -0.563502,-2.36337 0.0022,-1.25764 0.393637,-2.39711 1.129053,-3.28648 1.926281,-2.32953 5.217963,-2.49325 7.343215,-0.36525 1.095838,1.09726 1.590632,2.40507 1.489693,3.93749 -0.08875,1.34738 -0.572996,2.42214 -1.516383,3.36553 -0.632891,0.63289 -1.596301,1.16391 -2.418497,1.33304 -0.651952,0.13411 -1.75831,0.10298 -2.345332,-0.066 z"
       id="path7623"
       inkscape:connector-curvature="0"
       inkscape:export-xdpi="67.264885"
       inkscape:export-ydpi="67.264885" />
  </g>
</svg>
