<svg width="25" height="25" viewBox="0 0 25 25" fill="none" xmlns="http://www.w3.org/2000/svg">
<g id="plus 1" clip-path="url(#clip0_1182_100)">
<g id="Group">
<path id="Vector" d="M11.0918 18.625V13.5751H6.04175C5.75664 13.5751 5.48334 13.4617 5.28174 13.2601C5.08014 13.0585 4.9668 12.7851 4.9668 12.5C4.9668 12.2149 5.08014 11.9415 5.28174 11.7399C5.48334 11.5383 5.75664 11.425 6.04175 11.425H11.0918V6.3761C11.0874 6.23224 11.112 6.08891 11.1641 5.95471C11.2161 5.82051 11.2943 5.69816 11.3945 5.59485C11.4947 5.49153 11.6148 5.40936 11.7473 5.35327C11.8799 5.29718 12.0223 5.26831 12.1663 5.26831C12.3102 5.26831 12.4527 5.29718 12.5852 5.35327C12.7178 5.40936 12.8378 5.49153 12.938 5.59485C13.0382 5.69816 13.1167 5.82051 13.1687 5.95471C13.2207 6.08891 13.2451 6.23224 13.2407 6.3761V11.425H18.2917C18.5769 11.425 18.8504 11.5383 19.052 11.7399C19.2536 11.9415 19.3667 12.2149 19.3667 12.5C19.3667 12.7851 19.2536 13.0585 19.052 13.2601C18.8504 13.4617 18.5769 13.5751 18.2917 13.5751H13.2407V18.625C13.2451 18.7689 13.2207 18.9122 13.1687 19.0464C13.1167 19.1806 13.0382 19.3029 12.938 19.4062C12.8378 19.5096 12.7178 19.5917 12.5852 19.6478C12.4527 19.7039 12.3102 19.7328 12.1663 19.7328C12.0223 19.7328 11.8799 19.7039 11.7473 19.6478C11.6148 19.5917 11.4947 19.5096 11.3945 19.4062C11.2943 19.3029 11.2161 19.1806 11.1641 19.0464C11.112 18.9122 11.0874 18.7689 11.0918 18.625Z" fill="#1E293B"/>
</g>
</g>
<defs>
<clipPath id="clip0_1182_100">
<rect width="24" height="24" fill="white" transform="translate(0.166016 0.5)"/>
</clipPath>
</defs>
</svg>
